<svg width="23" height="15" viewBox="0 0 23 15" fill="none" xmlns="http://www.w3.org/2000/svg">
<path d="M11.0958 1C7.57768 1 3.96883 3.03622 1.12779 7.10865C1.04669 7.22617 1.00225 7.36509 1.00008 7.50786C0.997914 7.65063 1.03811 7.79083 1.1156 7.91076C3.29852 11.3278 6.85907 14 11.0958 14C15.2865 14 18.9202 11.3197 21.1072 7.89497C21.1828 7.77738 21.2231 7.64051 21.2231 7.50068C21.2231 7.36085 21.1828 7.22397 21.1072 7.10639C18.9152 3.72097 15.2549 1 11.0958 1Z" stroke="#A0AEC0" stroke-width="2" stroke-linecap="round" stroke-linejoin="round"/>
<path d="M11.1111 11.1109C13.1055 11.1109 14.7222 9.49414 14.7222 7.49978C14.7222 5.50542 13.1055 3.88867 11.1111 3.88867C9.11675 3.88867 7.5 5.50542 7.5 7.49978C7.5 9.49414 9.11675 11.1109 11.1111 11.1109Z" stroke="#A0AEC0" stroke-width="2" stroke-miterlimit="10"/>
</svg>
