<svg width="15" height="19" viewBox="0 0 15 19" fill="none" xmlns="http://www.w3.org/2000/svg">
<path d="M14 8.07993V16.0385C14 16.5587 13.7946 17.0576 13.4289 17.4255C13.0632 17.7933 12.5672 18 12.05 18H2.95C2.43283 18 1.93684 17.7933 1.57114 17.4255C1.20545 17.0576 1 16.5587 1 16.0385V2.96154C1 2.44131 1.20545 1.94238 1.57114 1.57452C1.93684 1.20666 2.43283 1 2.95 1H6.96172C7.30638 1.00005 7.63692 1.13778 7.88066 1.38291L13.6193 7.15555C13.863 7.40074 13.9999 7.73323 14 8.07993Z" stroke="#A0AEC0" stroke-width="2" stroke-linejoin="round"/>
<path d="M7 1V5.73684C7 6.07185 7.15526 6.39314 7.43163 6.63003C7.708 6.86692 8.08284 7 8.47368 7H14" stroke="#A0AEC0" stroke-width="2" stroke-linecap="round" stroke-linejoin="round"/>
</svg>
