<svg width="36" height="37" viewBox="0 0 36 37" fill="none" xmlns="http://www.w3.org/2000/svg">
<circle cx="18" cy="18.6553" r="18" fill="#F70308"/>
<g clip-path="url(#clip0_487_57462)">
<path d="M29.8425 13.6298C29.8425 11.5204 28.2909 9.82355 26.3737 9.82355C23.7769 9.70215 21.1284 9.65527 18.4219 9.65527H17.5781C14.8781 9.65527 12.225 9.70215 9.6281 9.82402C7.71561 9.82402 6.16404 11.5303 6.16404 13.6396C6.04685 15.3079 5.99717 16.9767 5.99998 18.6454C5.99529 20.3142 6.04842 21.9845 6.15935 23.6564C6.15935 25.7657 7.71092 27.4767 9.62342 27.4767C12.3515 27.6032 15.15 27.6595 17.9953 27.6548C20.8453 27.6642 23.6359 27.6048 26.3672 27.4767C28.2844 27.4767 29.8359 25.7657 29.8359 23.6564C29.9484 21.9829 30 20.3142 29.9953 18.6407C30.0059 16.972 29.955 15.3017 29.8425 13.6298ZM15.7031 23.2439V14.0329L22.5 18.6361L15.7031 23.2439Z" fill="white"/>
</g>
<defs>
<clipPath id="clip0_487_57462">
<rect width="24" height="24" fill="white" transform="translate(6 6.65527)"/>
</clipPath>
</defs>
</svg>
