<svg width="72" height="71" viewBox="0 0 72 71" fill="none" xmlns="http://www.w3.org/2000/svg">
<path d="M51.4702 23.2002L68.2069 26.0438C71.9262 26.6947 73.3037 31.2512 70.5487 33.8207L58.0822 45.2292C56.9802 46.2228 56.4636 47.7302 56.6703 49.2034L59.1154 65.8193C59.6664 69.5194 55.6716 72.2259 52.3656 70.4102L37.5229 62.2221C36.2142 61.5026 34.6301 61.4684 33.287 62.1193L18.0311 69.5537C14.6218 71.1981 10.7992 68.286 11.5224 64.6203L14.8284 48.1413C15.1383 46.6681 14.6562 45.195 13.6231 44.0987L1.77648 32.0735C-0.875224 29.4012 0.743349 24.8789 4.49706 24.4336L21.3716 22.4465C22.8524 22.2752 24.161 21.3844 24.8842 20.0826L32.8049 5.21383C34.5612 1.89063 39.417 2.02767 41.0011 5.41939L48.1297 20.665C48.7152 22.0011 49.9893 22.9604 51.4702 23.2002Z" fill="#DBBAA2"/>
<path d="M51.3691 21.0079L68.0025 23.8515C71.6873 24.5024 73.0649 29.0932 70.3098 31.6284L57.9123 43.0369C56.8102 44.0305 56.2937 45.5379 56.5003 47.0111L58.9109 63.627C59.4619 67.3271 55.5016 70.0336 52.1956 68.2178L37.4562 60.0298C36.1476 59.3103 34.5634 59.276 33.2204 59.927L18.0678 67.3613C14.6929 69.0058 10.8703 66.0937 11.6279 62.4279L14.8995 45.949C15.175 44.4758 14.7273 43.0027 13.6942 41.9063L1.91645 29.8812C-0.700816 27.2089 0.883324 22.6866 4.63704 22.2412L21.4082 20.2542C22.889 20.0829 24.1977 19.1921 24.8864 17.8903L32.8071 2.98726C34.5635 -0.335933 39.3503 -0.198894 40.9344 3.19282L47.9942 18.4384C48.6485 19.8088 49.8883 20.7681 51.3691 21.0079Z" fill="#FFF5EB"/>
<path d="M48.4754 25.3601L62.0095 27.6897C65.04 28.2036 66.142 31.9379 63.9036 33.9935L53.8133 43.2779C52.9179 44.1002 52.5047 45.2992 52.6768 46.4983L54.6398 60.0309C55.0875 63.0458 51.8503 65.2384 49.1986 63.7653L37.2143 57.0846C36.1467 56.5022 34.8725 56.4679 33.7705 56.9818L21.4418 63.0115C18.6868 64.3477 15.5874 61.9837 16.1728 59.0031L18.859 45.6076C19.1 44.4085 18.7212 43.2094 17.8947 42.3186L8.32101 32.5204C6.18587 30.3277 7.4945 26.6619 10.525 26.3193L24.1624 24.7091C25.3677 24.5721 26.4353 23.8526 26.9863 22.7563L33.3917 10.6626C34.8036 7.95611 38.7296 8.05889 40.0038 10.8339L45.7549 23.236C46.2714 24.3665 47.2701 25.1545 48.4754 25.3601Z" fill="#D16800"/>
<path d="M48.4749 22.1735L62.009 24.5031C65.0395 25.017 66.1415 28.7513 63.9031 30.8069L53.8128 40.0913C52.9174 40.9136 52.5042 42.1126 52.6763 43.3117L54.6393 56.8443C55.087 59.8592 51.8499 62.0518 49.1981 60.5787L37.2138 53.898C36.1462 53.3156 34.872 53.2813 33.77 53.7952L21.4413 59.8249C18.6863 61.1611 15.5869 58.7971 16.1723 55.8165L18.8585 42.421C19.0995 41.2219 18.7207 40.0228 17.8942 39.132L8.32052 29.368C6.18538 27.1754 7.49401 23.5096 10.5245 23.167L24.1619 21.5568C25.3672 21.4197 26.4348 20.7003 26.9858 19.604L33.3912 7.51028C34.8032 4.80376 38.7291 4.90654 40.0033 7.68158L45.7544 20.0836C46.2709 21.1799 47.2696 21.9679 48.4749 22.1735Z" fill="url(#paint0_linear_143_12707)"/>
<defs>
<linearGradient id="paint0_linear_143_12707" x1="36.1715" y1="5.54713" x2="36.1715" y2="61.0214" gradientUnits="userSpaceOnUse">
<stop stop-color="#FFF50F"/>
<stop offset="0.3713" stop-color="#FFDC07"/>
<stop offset="0.7283" stop-color="#FFCC02"/>
<stop offset="1" stop-color="#FFC600"/>
</linearGradient>
</defs>
</svg>
