<svg width="20" height="20" viewBox="0 0 20 20" fill="none" xmlns="http://www.w3.org/2000/svg">
<path d="M9.99968 11.666L9.64612 12.0196L9.99968 12.3731L10.3532 12.0196L9.99968 11.666ZM10.4997 4.16602C10.4997 3.88987 10.2758 3.66602 9.99968 3.66602C9.72353 3.66602 9.49968 3.88987 9.49968 4.16602L10.4997 4.16602ZM5.47945 7.8529L9.64612 12.0196L10.3532 11.3125L6.18656 7.1458L5.47945 7.8529ZM10.3532 12.0196L14.5199 7.8529L13.8128 7.1458L9.64612 11.3125L10.3532 12.0196ZM10.4997 11.666L10.4997 4.16602L9.49968 4.16602L9.49968 11.666L10.4997 11.666Z" fill="#A0AEC0"/>
<path d="M4.16699 13.334L4.16699 14.1673C4.16699 15.0878 4.91318 15.834 5.83366 15.834L14.167 15.834C15.0875 15.834 15.8337 15.0878 15.8337 14.1673V13.334" stroke="#A0AEC0"/>
</svg>
