<svg width="15" height="15" viewBox="0 0 15 15" fill="none" xmlns="http://www.w3.org/2000/svg">
<path d="M13.6667 11.28V13.28C13.6675 13.4657 13.6294 13.6494 13.555 13.8195C13.4807 13.9897 13.3716 14.1424 13.2348 14.2679C13.0979 14.3934 12.9364 14.489 12.7605 14.5485C12.5847 14.6079 12.3983 14.63 12.2134 14.6133C10.1619 14.3904 8.19137 13.6894 6.46004 12.5666C4.84926 11.5431 3.48359 10.1774 2.46004 8.56665C1.33336 6.82745 0.632199 4.84731 0.41337 2.78665C0.39671 2.60229 0.41862 2.41649 0.477704 2.24107C0.536787 2.06564 0.631751 1.90444 0.756547 1.76773C0.881344 1.63102 1.03324 1.52179 1.20256 1.447C1.37189 1.37221 1.55493 1.33349 1.74004 1.33332H3.74004C4.06357 1.33013 4.37723 1.4447 4.62254 1.65567C4.86786 1.86664 5.02809 2.15961 5.07337 2.47998C5.15779 3.12003 5.31434 3.74847 5.54004 4.35332C5.62973 4.59193 5.64915 4.85126 5.59597 5.10057C5.5428 5.34988 5.41928 5.57872 5.24004 5.75998L4.39337 6.60665C5.34241 8.27568 6.72434 9.65761 8.39337 10.6066L9.24004 9.75998C9.4213 9.58074 9.65014 9.45722 9.89945 9.40405C10.1488 9.35087 10.4081 9.37029 10.6467 9.45998C11.2516 9.68568 11.88 9.84223 12.52 9.92665C12.8439 9.97234 13.1396 10.1355 13.3511 10.385C13.5625 10.6345 13.6748 10.953 13.6667 11.28Z" fill="#FCAF17" stroke="#FCAF17" stroke-width="0.75" stroke-linecap="round" stroke-linejoin="round"/>
</svg>
